<?xml version="1.0" encoding="UTF-8" standalone="no"?>
<!DOCTYPE svg PUBLIC "-//W3C//DTD SVG 1.1//EN"
 "http://www.w3.org/Graphics/SVG/1.1/DTD/svg11.dtd">
<!-- Generated by graphviz version 12.2.1 (0)
 -->
<!-- Pages: 1 -->
<svg width="1159pt" height="255pt"
 viewBox="0.00 0.00 1192.13 262.00" xmlns="http://www.w3.org/2000/svg" xmlns:xlink="http://www.w3.org/1999/xlink">
<g id="graph0" class="graph" transform="scale(0.972222 0.972222) rotate(0) translate(4 258)">
<polygon fill="white" stroke="none" points="-4,4 -4,-258 1188.13,-258 1188.13,4 -4,4"/>
<!-- 4602680752 -->
<g id="node1" class="node">
<title>4602680752</title>
<polygon fill="lightblue" stroke="black" points="1048.88,-102.5 1048.88,-151.5 1184.13,-151.5 1184.13,-102.5 1048.88,-102.5"/>
<text text-anchor="middle" x="1116.5" y="-134.2" font-family="Times,serif" font-size="14.00">: 0.102443419482938</text>
<polyline fill="none" stroke="black" points="1048.88,-127 1184.13,-127"/>
<text text-anchor="middle" x="1116.5" y="-109.7" font-family="Times,serif" font-size="14.00">grad:1.0</text>
</g>
<!-- 4602680752_op -->
<g id="node2" class="node">
<title>4602680752_op</title>
<ellipse fill="orange" stroke="black" cx="979.44" cy="-127" rx="33.44" ry="33.44"/>
<text text-anchor="middle" x="979.44" y="-121.95" font-family="Times,serif" font-size="14.00">ReLU</text>
</g>
<!-- 4602680752_op&#45;&gt;4602680752 -->
<g id="edge1" class="edge">
<title>4602680752_op&#45;&gt;4602680752</title>
<path fill="none" stroke="black" d="M1013.13,-127C1020.49,-127 1028.6,-127 1036.94,-127"/>
<polygon fill="black" stroke="black" points="1036.9,-130.5 1046.9,-127 1036.9,-123.5 1036.9,-130.5"/>
</g>
<!-- 4602681904 -->
<g id="node3" class="node">
<title>4602681904</title>
<polygon fill="lightblue" stroke="black" points="774.75,-102.5 774.75,-151.5 910,-151.5 910,-102.5 774.75,-102.5"/>
<text text-anchor="middle" x="842.38" y="-134.2" font-family="Times,serif" font-size="14.00">: 0.102443419482938</text>
<polyline fill="none" stroke="black" points="774.75,-127 910,-127"/>
<text text-anchor="middle" x="842.38" y="-109.7" font-family="Times,serif" font-size="14.00">grad:1.0</text>
</g>
<!-- 4602681904&#45;&gt;4602680752_op -->
<g id="edge2" class="edge">
<title>4602681904&#45;&gt;4602680752_op</title>
<path fill="none" stroke="black" d="M910.12,-127C918.32,-127 926.55,-127 934.3,-127"/>
<polygon fill="black" stroke="black" points="934.14,-130.5 944.14,-127 934.14,-123.5 934.14,-130.5"/>
</g>
<!-- 4602681904_op -->
<g id="node4" class="node">
<title>4602681904_op</title>
<ellipse fill="orange" stroke="black" cx="720.75" cy="-127" rx="18" ry="18"/>
<text text-anchor="middle" x="720.75" y="-121.95" font-family="Times,serif" font-size="14.00">+</text>
</g>
<!-- 4602681904_op&#45;&gt;4602681904 -->
<g id="edge3" class="edge">
<title>4602681904_op&#45;&gt;4602681904</title>
<path fill="none" stroke="black" d="M739.14,-127C745.89,-127 754.11,-127 762.94,-127"/>
<polygon fill="black" stroke="black" points="762.86,-130.5 772.86,-127 762.86,-123.5 762.86,-130.5"/>
</g>
<!-- 4602681808 -->
<g id="node5" class="node">
<title>4602681808</title>
<polygon fill="lightblue" stroke="black" points="515.75,-136.5 515.75,-185.5 664.5,-185.5 664.5,-136.5 515.75,-136.5"/>
<text text-anchor="middle" x="590.12" y="-168.2" font-family="Times,serif" font-size="14.00">: 0.23550571390294128</text>
<polyline fill="none" stroke="black" points="515.75,-161 664.5,-161"/>
<text text-anchor="middle" x="590.12" y="-143.7" font-family="Times,serif" font-size="14.00">grad:1.0</text>
</g>
<!-- 4602681808&#45;&gt;4602681904_op -->
<g id="edge4" class="edge">
<title>4602681808&#45;&gt;4602681904_op</title>
<path fill="none" stroke="black" d="M664.83,-141.52C674.48,-138.97 683.85,-136.49 692.03,-134.33"/>
<polygon fill="black" stroke="black" points="692.83,-137.74 701.6,-131.8 691.04,-130.97 692.83,-137.74"/>
</g>
<!-- 4602681808_op -->
<g id="node6" class="node">
<title>4602681808_op</title>
<ellipse fill="orange" stroke="black" cx="459.5" cy="-161" rx="18" ry="18"/>
<text text-anchor="middle" x="459.5" y="-155.95" font-family="Times,serif" font-size="14.00">+</text>
</g>
<!-- 4602681808_op&#45;&gt;4602681808 -->
<g id="edge5" class="edge">
<title>4602681808_op&#45;&gt;4602681808</title>
<path fill="none" stroke="black" d="M477.85,-161C485.17,-161 494.28,-161 504.11,-161"/>
<polygon fill="black" stroke="black" points="503.95,-164.5 513.95,-161 503.95,-157.5 503.95,-164.5"/>
</g>
<!-- 4602609488 -->
<g id="node7" class="node">
<title>4602609488</title>
<polygon fill="lightblue" stroke="black" points="300.62,-204.5 300.62,-253.5 361.62,-253.5 361.62,-204.5 300.62,-204.5"/>
<text text-anchor="middle" x="331.12" y="-236.2" font-family="Times,serif" font-size="14.00">: 0</text>
<polyline fill="none" stroke="black" points="300.62,-229 361.62,-229"/>
<text text-anchor="middle" x="331.12" y="-211.7" font-family="Times,serif" font-size="14.00">grad:1.0</text>
</g>
<!-- 4602609488&#45;&gt;4602681808_op -->
<g id="edge6" class="edge">
<title>4602609488&#45;&gt;4602681808_op</title>
<path fill="none" stroke="black" d="M361.86,-216.33C375.39,-210.29 391.47,-202.7 405.5,-195 415.39,-189.57 425.91,-183 434.96,-177.08"/>
<polygon fill="black" stroke="black" points="436.78,-180.07 443.17,-171.62 432.9,-174.24 436.78,-180.07"/>
</g>
<!-- 4602681280 -->
<g id="node8" class="node">
<title>4602681280</title>
<polygon fill="lightblue" stroke="black" points="256.75,-136.5 256.75,-185.5 405.5,-185.5 405.5,-136.5 256.75,-136.5"/>
<text text-anchor="middle" x="331.12" y="-168.2" font-family="Times,serif" font-size="14.00">: 0.23550571390294128</text>
<polyline fill="none" stroke="black" points="256.75,-161 405.5,-161"/>
<text text-anchor="middle" x="331.12" y="-143.7" font-family="Times,serif" font-size="14.00">grad:1.0</text>
</g>
<!-- 4602681280&#45;&gt;4602681808_op -->
<g id="edge7" class="edge">
<title>4602681280&#45;&gt;4602681808_op</title>
<path fill="none" stroke="black" d="M405.64,-161C414.13,-161 422.36,-161 429.7,-161"/>
<polygon fill="black" stroke="black" points="429.59,-164.5 439.59,-161 429.59,-157.5 429.59,-164.5"/>
</g>
<!-- 4602681280_op -->
<g id="node9" class="node">
<title>4602681280_op</title>
<ellipse fill="orange" stroke="black" cx="202.75" cy="-161" rx="18" ry="18"/>
<text text-anchor="middle" x="202.75" y="-155.95" font-family="Times,serif" font-size="14.00">*</text>
</g>
<!-- 4602681280_op&#45;&gt;4602681280 -->
<g id="edge8" class="edge">
<title>4602681280_op&#45;&gt;4602681280</title>
<path fill="none" stroke="black" d="M221.06,-161C227.83,-161 236.14,-161 245.11,-161"/>
<polygon fill="black" stroke="black" points="244.82,-164.5 254.82,-161 244.82,-157.5 244.82,-164.5"/>
</g>
<!-- 4602225552 -->
<g id="node10" class="node">
<title>4602225552</title>
<polygon fill="lightblue" stroke="black" points="33.75,-170.5 33.75,-219.5 115,-219.5 115,-170.5 33.75,-170.5"/>
<text text-anchor="middle" x="74.38" y="-202.2" font-family="Times,serif" font-size="14.00">: 1.0</text>
<polyline fill="none" stroke="black" points="33.75,-195 115,-195"/>
<text text-anchor="middle" x="74.38" y="-177.7" font-family="Times,serif" font-size="14.00">grad:0.2355</text>
</g>
<!-- 4602225552&#45;&gt;4602681280_op -->
<g id="edge9" class="edge">
<title>4602225552&#45;&gt;4602681280_op</title>
<path fill="none" stroke="black" d="M115.36,-184.24C134.4,-179.12 156.7,-173.12 173.87,-168.5"/>
<polygon fill="black" stroke="black" points="174.63,-171.92 183.38,-165.94 172.81,-165.16 174.63,-171.92"/>
</g>
<!-- 4602609200 -->
<g id="node11" class="node">
<title>4602609200</title>
<polygon fill="lightblue" stroke="black" points="0,-102.5 0,-151.5 148.75,-151.5 148.75,-102.5 0,-102.5"/>
<text text-anchor="middle" x="74.38" y="-134.2" font-family="Times,serif" font-size="14.00">: 0.23550571390294128</text>
<polyline fill="none" stroke="black" points="0,-127 148.75,-127"/>
<text text-anchor="middle" x="74.38" y="-109.7" font-family="Times,serif" font-size="14.00">grad:1.0</text>
</g>
<!-- 4602609200&#45;&gt;4602681280_op -->
<g id="edge10" class="edge">
<title>4602609200&#45;&gt;4602681280_op</title>
<path fill="none" stroke="black" d="M148.89,-146.78C157.73,-149.16 166.29,-151.46 173.85,-153.49"/>
<polygon fill="black" stroke="black" points="172.79,-156.83 183.36,-156.05 174.61,-150.07 172.79,-156.83"/>
</g>
<!-- 4602681856 -->
<g id="node12" class="node">
<title>4602681856</title>
<polygon fill="lightblue" stroke="black" points="513.5,-68.5 513.5,-117.5 666.75,-117.5 666.75,-68.5 513.5,-68.5"/>
<text text-anchor="middle" x="590.12" y="-100.2" font-family="Times,serif" font-size="14.00">: &#45;0.13306229442000328</text>
<polyline fill="none" stroke="black" points="513.5,-93 666.75,-93"/>
<text text-anchor="middle" x="590.12" y="-75.7" font-family="Times,serif" font-size="14.00">grad:1.0</text>
</g>
<!-- 4602681856&#45;&gt;4602681904_op -->
<g id="edge11" class="edge">
<title>4602681856&#45;&gt;4602681904_op</title>
<path fill="none" stroke="black" d="M667.06,-113.07C675.91,-115.41 684.46,-117.67 692.01,-119.67"/>
<polygon fill="black" stroke="black" points="690.9,-123 701.47,-122.17 692.69,-116.23 690.9,-123"/>
</g>
<!-- 4602681856_op -->
<g id="node13" class="node">
<title>4602681856_op</title>
<ellipse fill="orange" stroke="black" cx="459.5" cy="-93" rx="18" ry="18"/>
<text text-anchor="middle" x="459.5" y="-87.95" font-family="Times,serif" font-size="14.00">*</text>
</g>
<!-- 4602681856_op&#45;&gt;4602681856 -->
<g id="edge12" class="edge">
<title>4602681856_op&#45;&gt;4602681856</title>
<path fill="none" stroke="black" d="M477.85,-93C484.62,-93 492.93,-93 501.92,-93"/>
<polygon fill="black" stroke="black" points="501.66,-96.5 511.66,-93 501.66,-89.5 501.66,-96.5"/>
</g>
<!-- 4602680512 -->
<g id="node14" class="node">
<title>4602680512</title>
<polygon fill="lightblue" stroke="black" points="290.5,-68.5 290.5,-117.5 371.75,-117.5 371.75,-68.5 290.5,-68.5"/>
<text text-anchor="middle" x="331.12" y="-100.2" font-family="Times,serif" font-size="14.00">: &#45;2.0</text>
<polyline fill="none" stroke="black" points="290.5,-93 371.75,-93"/>
<text text-anchor="middle" x="331.12" y="-75.7" font-family="Times,serif" font-size="14.00">grad:0.0665</text>
</g>
<!-- 4602680512&#45;&gt;4602681856_op -->
<g id="edge13" class="edge">
<title>4602680512&#45;&gt;4602681856_op</title>
<path fill="none" stroke="black" d="M372.11,-93C390.85,-93 412.75,-93 429.81,-93"/>
<polygon fill="black" stroke="black" points="429.75,-96.5 439.75,-93 429.75,-89.5 429.75,-96.5"/>
</g>
<!-- 4602680704 -->
<g id="node15" class="node">
<title>4602680704</title>
<polygon fill="lightblue" stroke="black" points="256.75,-0.5 256.75,-49.5 405.5,-49.5 405.5,-0.5 256.75,-0.5"/>
<text text-anchor="middle" x="331.12" y="-32.2" font-family="Times,serif" font-size="14.00">: 0.06653114721000164</text>
<polyline fill="none" stroke="black" points="256.75,-25 405.5,-25"/>
<text text-anchor="middle" x="331.12" y="-7.7" font-family="Times,serif" font-size="14.00">grad:&#45;2.0</text>
</g>
<!-- 4602680704&#45;&gt;4602681856_op -->
<g id="edge14" class="edge">
<title>4602680704&#45;&gt;4602681856_op</title>
<path fill="none" stroke="black" d="M387.82,-49.83C393.84,-52.8 399.84,-55.89 405.5,-59 415.39,-64.43 425.91,-71 434.96,-76.92"/>
<polygon fill="black" stroke="black" points="432.9,-79.76 443.17,-82.38 436.78,-73.93 432.9,-79.76"/>
</g>
</g>
</svg>
